<svg width="96" height="642" viewBox="0 0 96 642" fill="none" xmlns="http://www.w3.org/2000/svg">
<path d="M49.5722 642.002V638.287H47.7569C23.4246 638.287 3.6306 618.501 3.6306 594.187C3.6306 569.873 23.4246 550.094 47.7569 550.094H49.5722V481.346C75.0662 480.388 95.5137 459.361 95.5137 433.654C95.5137 407.947 75.0662 386.927 49.5722 385.969V319.586H47.7569C23.4246 319.586 3.6306 299.807 3.6306 275.493C3.6306 251.179 23.4246 231.393 47.7569 231.393H49.5722V162.645C75.0662 161.687 95.5137 140.667 95.5137 114.96C95.5137 89.2528 75.0662 68.2257 49.5722 67.2679V1.81393C49.5722 0.812643 48.7589 0 47.7569 0C46.7548 0 45.9416 0.812643 45.9416 1.81393V70.8595H47.7569C72.0891 70.8595 91.8831 90.6459 91.8831 114.96C91.8831 139.274 72.0891 159.053 47.7569 159.053H45.9416V227.801C20.4475 228.759 0 249.786 0 275.493C0 301.2 20.4475 322.227 45.9416 323.178V389.561H47.7569C72.0891 389.561 91.8831 409.34 91.8831 433.654C91.8831 457.968 72.0891 477.754 47.7569 477.754H45.9416V546.502C20.4475 547.46 0 568.48 0 594.187C0 619.894 20.4475 640.921 45.9416 641.879V642.002H49.5722Z" fill="#F5F5F5"/>
</svg>
