<svg
              class="features__icon"
              viewBox="0 0 40 35"
              fill="currentColor"
              xmlns="http://www.w3.org/2000/svg"
            >
              <path
                d="M24.4844 0.0734373C26.5156 0.479687 27.8359 2.45625 27.4297 4.4875L27.25 5.37812C26.8359 7.46406 26.0703 9.44844 25 11.2531H36.25C38.3203 11.2531 40 12.9328 40 15.0031C40 16.9797 38.4766 18.5969 36.5391 18.7453C37.1406 19.4094 37.5 20.2922 37.5 21.2531C37.5 23.0813 36.1875 24.6047 34.4609 24.9328C34.8047 25.4953 35 26.1672 35 26.8781C35 28.5422 33.9141 29.9563 32.4141 30.4406C32.4688 30.6984 32.5 30.9719 32.5 31.2531C32.5 33.3234 30.8203 35.0031 28.75 35.0031H23.0078C21.5234 35.0031 20.0781 34.5656 18.8438 33.7453L15.8359 31.7375C13.75 30.3469 12.5 28.0031 12.5 25.4953V22.5031V18.7531V16.8078C12.5 14.5266 13.5391 12.3781 15.3125 10.9484L15.8906 10.4875C17.9609 8.83125 19.375 6.50312 19.8906 3.90937L20.0703 3.01875C20.4766 0.9875 22.4531 -0.332813 24.4844 0.0734373ZM2.5 12.5031H7.5C8.88281 12.5031 10 13.6203 10 15.0031V32.5031C10 33.8859 8.88281 35.0031 7.5 35.0031H2.5C1.11719 35.0031 0 33.8859 0 32.5031V15.0031C0 13.6203 1.11719 12.5031 2.5 12.5031Z"
                fill="currentColor"
              />
            </svg>