<svg width="37" height="30" viewBox="0 0 37 30" fill="none" xmlns="http://www.w3.org/2000/svg">
<g clip-path="url(#clip0_1_503)">
<path fill-rule="evenodd" clip-rule="evenodd" d="M0.00157547 0.824227C0.0520058 0.576801 0.156017 0.382958 0.617775 0.181235C1.57123 -0.237971 3.66884 0.203299 3.81855 0.215906C5.41815 0.529523 6.99096 0.978672 8.53225 1.53026C10.8174 2.34818 13.0285 3.39147 15.1686 4.48676C17.4364 5.67346 19.6144 6.99096 21.6253 8.51334C23.6599 10.0546 25.5369 11.7803 27.2389 13.6589C28.2617 14.7888 29.2231 15.9708 30.093 17.2221C32.0881 20.0951 33.6531 23.2486 34.8618 26.6274C34.9044 26.7252 34.8587 26.8386 34.761 26.8812C34.6633 26.9237 34.5498 26.8812 34.5057 26.7819C32.8872 23.6867 30.881 20.9209 28.6494 18.3458C27.6944 17.2457 26.7062 16.182 25.6724 15.1607C23.9562 13.4682 22.1092 11.9127 20.1597 10.466C18.2307 9.03341 16.2182 7.69069 14.0796 6.52133C12.3934 5.57575 10.6566 4.67273 8.87266 3.88159C7.10443 3.09834 5.2968 2.42068 3.43087 1.95734L0.195419 1.00704C0.0614624 0.932969 -0.0157623 0.896722 -3.8147e-06 0.825803" fill="black"/>
<path fill-rule="evenodd" clip-rule="evenodd" d="M33.765 15.3262C33.7429 14.6013 34.3938 14.0134 35.1045 14.1616C35.1613 14.1742 35.2023 14.1868 35.218 14.2026C35.3583 14.3334 35.4371 14.595 35.5647 14.9527C35.675 15.2648 35.7601 15.6272 35.82 16.026C35.9871 17.1149 35.965 18.319 35.9792 18.464C36.058 20.5978 36.4914 23.1194 36.5087 25.4707C36.515 26.607 36.4252 27.7086 36.1778 28.7187C36.1289 28.9126 36.0422 29.1537 35.9162 29.346C35.809 29.5099 35.675 29.6486 35.5237 29.7526C35.1818 29.989 34.7626 30.0662 34.3008 29.937C33.8343 29.8077 33.2071 29.264 32.9849 29.0891C32.0283 28.3263 31.0496 27.6156 30.0741 26.9158C29.1537 26.2539 28.2129 25.6346 27.2862 24.9837C25.8852 24.0019 24.5346 22.9901 23.0484 22.065C22.8215 21.9563 22.7285 21.6837 22.8373 21.4551C22.9476 21.2282 23.2202 21.1336 23.4472 21.244C25.4565 21.9768 27.3949 22.7112 29.2231 23.7214C30.9645 24.6827 32.5625 25.8836 34.17 27.1254C34.2393 26.5896 34.2677 26.0349 34.2724 25.4675C34.2913 23.1383 33.9052 20.6356 33.8658 18.5254L33.7681 15.3246L33.765 15.3262Z" fill="black"/>
</g>
<defs>
<clipPath id="clip0_1_503">
<rect width="36.5087" height="30" fill="white" transform="matrix(-1 0 0 1 36.5087 0)"/>
</clipPath>
</defs>
</svg>
