<svg
              class="benefits__icon"
              viewBox="0 0 49 48"
              fill="currentColor"
              xmlns="http://www.w3.org/2000/svg"
            >
              <path
                d="M27.9361 0C14.4334 0 3.5 10.7464 3.5 24C3.5 37.2536 14.4334 48 27.9361 48C34.5618 48 40.5642 45.4071 44.9703 41.2071C45.517 40.6821 45.6591 39.8679 45.3093 39.2036C44.9594 38.5393 44.205 38.1643 43.4506 38.2929C42.3791 38.475 41.2858 38.5714 40.1596 38.5714C29.5652 38.5714 20.9716 30.1286 20.9716 19.7143C20.9716 12.6643 24.9076 6.525 30.7351 3.28929C31.402 2.91429 31.7409 2.16429 31.5769 1.43571C31.4129 0.707143 30.7788 0.160714 30.0135 0.0964287C29.3247 0.0428573 28.6359 0.0107141 27.9361 0.0107141V0Z"
                fill="currentColor"
              />
            </svg>