<svg width="37" height="30" viewBox="0 0 37 30" fill="none" xmlns="http://www.w3.org/2000/svg">
<g clip-path="url(#clip0_1_499)">
<path fill-rule="evenodd" clip-rule="evenodd" d="M36.5072 0.824235C36.4567 0.576809 36.3527 0.382966 35.891 0.181243C34.9375 -0.237963 32.8399 0.203306 32.6902 0.215914C31.0906 0.52953 29.5178 0.978679 27.9765 1.53027C25.6913 2.34819 23.4803 3.39148 21.3401 4.48677C19.0723 5.67347 16.8943 6.99097 14.8834 8.51335C12.8488 10.0546 10.9719 11.7803 9.26981 13.6589C8.24701 14.7888 7.28568 15.9708 6.41575 17.2221C4.42058 20.0951 2.85565 23.2486 1.64689 26.6275C1.60434 26.7252 1.65004 26.8386 1.74775 26.8812C1.84546 26.9237 1.95893 26.8812 2.00305 26.7819C3.62157 23.6867 5.62777 20.9209 7.85933 18.3458C8.81436 17.2458 9.80249 16.182 10.8363 15.1608C12.5525 13.4682 14.3996 11.9127 16.349 10.466C18.278 9.03342 20.2905 7.6907 22.4291 6.52134C24.1154 5.57576 25.8521 4.67273 27.6361 3.8816C29.4043 3.09835 31.2119 2.42068 33.0779 1.95735L36.3133 1.00705C36.4473 0.932976 36.5245 0.896729 36.5087 0.825811" fill="black"/>
<path fill-rule="evenodd" clip-rule="evenodd" d="M2.74375 15.3262C2.76581 14.6013 2.11494 14.0135 1.40418 14.1616C1.34745 14.1742 1.30647 14.1868 1.29072 14.2026C1.15045 14.3334 1.07166 14.595 0.944004 14.9527C0.833686 15.2648 0.748584 15.6272 0.688698 16.026C0.521646 17.1149 0.543709 18.319 0.529526 18.464C0.450728 20.5978 0.0173383 23.1194 2.71658e-06 25.4707C-0.00630113 26.607 0.0835286 27.7086 0.330955 28.7188C0.379809 28.9126 0.466487 29.1537 0.592564 29.346C0.69973 29.5099 0.833686 29.6486 0.984979 29.7526C1.32696 29.989 1.74617 30.0662 2.20792 29.937C2.67441 29.8077 3.30164 29.264 3.52385 29.0891C4.48046 28.3263 5.45913 27.6156 6.43465 26.9159C7.35501 26.2539 8.29586 25.6346 9.22253 24.9837C10.6236 24.0019 11.9742 22.9901 13.4603 22.065C13.6872 21.9563 13.7802 21.6837 13.6715 21.4551C13.5612 21.2282 13.2885 21.1336 13.0616 21.244C11.0522 21.9768 9.11379 22.7112 7.28567 23.7214C5.54423 24.6827 3.94621 25.8836 2.33873 27.1255C2.26939 26.5896 2.24102 26.0349 2.23629 25.4675C2.21738 23.1383 2.60349 20.6356 2.64289 18.5254L2.7406 15.3247L2.74375 15.3262Z" fill="black"/>
</g>
<defs>
<clipPath id="clip0_1_499">
<rect width="36.5087" height="30" fill="white"/>
</clipPath>
</defs>
</svg>
