<svg width="48" height="42" viewBox="0 0 48 42" fill="none" xmlns="http://www.w3.org/2000/svg">
<path d="M4.4625 24.2109L21.4031 40.0265C22.1063 40.6827 23.0344 41.0484 24 41.0484C24.9656 41.0484 25.8938 40.6827 26.5969 40.0265L43.5375 24.2109C46.3875 21.5577 48 17.8359 48 13.9452V13.4015C48 6.84835 43.2656 1.26085 36.8063 0.182729C32.5312 -0.529771 28.1812 0.867104 25.125 3.92335L24 5.04835L22.875 3.92335C19.8188 0.867104 15.4688 -0.529771 11.1938 0.182729C4.73438 1.26085 0 6.84835 0 13.4015V13.9452C0 17.8359 1.6125 21.5577 4.4625 24.2109Z" fill="#0B0A0C"/>
</svg>
